<?xml version="1.0" encoding="UTF-8"?>
<!-- Generator: Adobe Illustrator 21.0.0, SVG Export Plug-In . SVG Version: 6.00 Build 0)  -->
<svg version="1.1" id="Layer_1_xA0_Image_1_" xmlns="http://www.w3.org/2000/svg" xmlns:xlink="http://www.w3.org/1999/xlink" x="0px" y="0px" viewBox="0 0 600 600" style="enable-background:new 0 0 600 600;" xml:space="preserve">
<style type="text/css">
	.st0{fill:#67B458;}
	.st1{fill:#F07C20;}
</style>
<g>
	<path class="st0" d="M577.7,293.2c0,5.3,0,10.6,0,15.8c-0.6,3.4-1.1,6.8-0.9,10.2c0.1,1.9,0,3.8-0.1,5.8c0,0.5,0.1,1-0.1,1.4   c-1.2,2.4-0.7,5-0.9,7.5c-0.1,0.8,0.1,1.7-0.3,2.3c-0.7,1.2-0.6,2.4-0.7,3.7c-0.3,2.9-0.7,5.8-1.1,8.7c-0.1,0.4-0.3,0.7-0.4,1.1   c-0.2,0.5-0.3,1.1-0.4,1.6c-0.4,2.6-0.8,5.1-1.2,7.7c0,0.2-0.1,0.3-0.1,0.5c-0.5,2-1.1,3.9-1.6,5.9s-0.5,4.2-1.4,6   c-0.7,1.5-0.6,2.9-1,4.4c-0.9,2.7-1.8,5.5-2.7,8.2s-1.8,5.5-2.7,8.2c-0.7,2-1.5,3.9-2.2,5.9c-1.5,4-3,8.1-4.7,12   c-1,2.4-2.3,4.6-3.3,6.9c-1.6,3.4-2.8,6.9-4.6,10.1c-3.4,5.9-6.5,11.9-10.1,17.7c-3.2,5.2-6.6,10.3-10,15.3   c-2.8,4.2-6,8.3-9.2,12.2c-3.2,4.1-6.6,8.1-10.1,11.9c-4.1,4.5-8.4,8.8-12.7,13.1c-3.5,3.5-7,6.9-10.6,10.2   c-3.6,3.3-7.4,6.4-11.2,9.5c-2.1,1.7-4.3,3.1-6.4,4.6c-2.2,1.7-4.3,3.5-6.6,5.1c-3.5,2.4-7,4.7-10.6,6.9c-4.1,2.6-8.3,5.1-12.5,7.6   c-2.9,1.7-5.8,3.3-8.8,4.7c-5,2.5-10.1,5-15.2,7.3c-3.3,1.5-6.8,2.8-10.2,4.2c-4.3,1.7-8.6,3.3-12.9,4.9c-1.4,0.5-2.9,0.8-4.3,1.3   c-1.5,0.5-2.9,1.2-4.3,1.6c-1.9,0.6-3.9,1.2-5.8,1.7s-3.8,0.9-5.7,1.3c-1.8,0.4-3.5,0.9-5.3,1.3c-2.5,0.6-5,1.3-7.6,1.8   c-2.3,0.5-4.7,0.7-7,1.1c-0.2,0-0.3,0.1-0.4,0.2c-1.2,0.3-2.5,0.5-3.7,0.8c-0.7,0.1-1.6-0.1-2.1,0.2c-1.5,0.9-3.1,0.7-4.6,0.8   c-0.6,0-1.4-0.2-1.9,0.1c-2.6,1.4-5.3,0.7-8,0.9c-0.6,0.1-1.4-0.1-1.9,0.2c-1.3,0.8-2.8,0.7-4.2,0.7c-3,0-5.9,0.1-8.9,0.1   c-0.6,0-1.3,0-1.9,0.1c-2,0.2-4.1,0.6-6.1,0.7c-4,0.1-8,0-12,0c-1,0-1.9-0.2-2.9-0.2c-2.3-0.2-4.6-0.5-6.9-0.6s-4.6-0.1-7-0.1   c-0.6,0-1.4,0.1-1.9-0.2c-1.1-0.8-2.3-0.8-3.5-0.6c-4.2,0.4-8.1-1.3-12.3-1.2c-0.5,0-1.1-0.3-1.6-0.5c-0.6-0.2-1.2-0.3-1.8-0.4   c-2.8-0.4-5.6-0.8-8.4-1.2c-0.1,0-0.2,0-0.2,0c-2.4-0.6-4.7-1.2-7.1-1.7c-2-0.5-4.1-0.6-6-1.3c-2.5-0.8-5-1.7-7.7-1.9   c-0.2,0-0.5-0.1-0.7-0.2c-1.6-0.6-3.2-1.2-4.8-1.7s-3.4-0.7-5-1.3c-2.4-0.8-4.8-1.8-7.2-2.7c-4.9-1.8-10-3.4-14.8-5.4   s-9.4-4.4-14.2-6.6c-8.1-3.7-15.7-8.1-23.3-12.6c-4.7-2.8-9.3-5.8-13.8-8.9c-4-2.7-7.7-5.7-11.5-8.6c-3.4-2.6-6.8-5.4-10.1-8.2   c-3.2-2.7-6.4-5.5-9.4-8.3c-6.8-6.4-13.3-13-19.3-20.1c-2.5-2.9-4.9-5.7-7.4-8.6c-0.1-0.1-0.2-0.2-0.3-0.3   c-1.7-2.3-3.4-4.5-5.1-6.8c-1.6-2.1-3.3-4.2-4.8-6.4c-2.5-3.7-5-7.4-7.5-11.2c-1.3-1.9-2.6-3.9-3.8-5.9c-1.9-3.3-3.7-6.7-5.5-10.1   c-1.9-3.5-3.8-7-5.6-10.5c-1.7-3.4-3.3-6.8-4.9-10.2c-1.4-3.1-2.8-6.3-4.1-9.5c-1.2-3.1-2-6.4-3.3-9.5c-1.1-2.7-2.1-5.4-2.9-8.2   c-0.4-1.4-0.9-2.9-1.3-4.3c-0.9-2.8-1.8-5.7-2.6-8.5c-0.5-1.7-0.6-3.6-1.2-5.3c-0.9-2.7-1.7-5.4-1.9-8.3c0-0.3-0.1-0.6-0.2-0.9   c-0.3-1.1-0.5-2.1-0.7-3.2c-0.1-0.6-0.1-1.3-0.2-1.9c-0.2-1.1-0.5-2.1-0.8-3.2c-0.1-0.5,0.1-1.2-0.1-1.7c-1.6-2.8-0.6-6-1.7-9   c-0.8-2.3-0.4-5.1-1-7.7c-0.7-3.5,0-7.3-1.1-10.9c-0.1-10.6-0.3-21.1-0.2-31.7c0-3.7-0.1-7.5,0.9-11.2c0.6-2.1,0.2-4.5,0.3-6.7   c0-0.7,0.1-1.4,0.3-2.1c0.2-1,0.5-2,0.6-3c0.4-3.4,0.5-7,1.3-10.3c0.4-1.8,0.6-3.5,0.8-5.3c0-0.3,0.1-0.6,0.2-0.9   c0.6-2.4,1.2-4.7,1.7-7.1c0.4-2.1,0.8-4.2,1.1-6.2c0-0.2,0.1-0.3,0.2-0.4c0.6-1.8,1.2-3.5,1.6-5.3c0.5-2,0.7-4,1.3-6   c1.1-3.6,2.5-7.1,3.7-10.7c0.4-1.2,0.7-2.4,1.1-3.6c0.5-1.6,1.1-3.2,1.7-4.8c0.7-1.9,1.5-3.7,2.2-5.6c1.2-3.1,2.4-6.3,3.7-9.3   c1-2.3,2.2-4.5,3.3-6.8c2.5-5.1,5-10.3,7.6-15.3c1.9-3.6,4.2-7,6.2-10.5c2.4-4.2,5.2-8.2,7.7-12.3c1.8-2.9,4.1-5.6,6.2-8.4   c1-1.4,2.3-2.6,3.2-4.1c3.2-5.3,7.7-9.7,11.5-14.4c3.3-4,7.1-7.7,10.8-11.4c2.6-2.7,5.3-5.2,8.1-7.8c4.2-3.8,8.5-7.6,12.7-11.4   c0.3-0.3,0.6-0.5,0.9-0.7c2.3-1.8,4.6-3.6,6.9-5.4c1.9-1.5,3.6-3,5.6-4.4c3.1-2.2,6.3-4.4,9.5-6.5c3.1-2,6.2-3.9,9.3-5.8   c2.5-1.5,5.2-2.9,7.7-4.5c5.8-3.7,12.1-6.4,18.2-9.5c2.7-1.4,5.5-2.6,8.3-3.8c3.3-1.4,6.6-2.8,10-4.2c2.4-1,4.9-1.8,7.4-2.7   c2.4-0.8,4.9-1.6,7.3-2.4c1.5-0.5,3-0.8,4.5-1.2c1.6-0.5,3-1.3,4.6-1.7c3.1-0.8,6.3-1.4,9.4-2.3c2.8-0.8,5.5-1.8,8.5-1.9   c0.2,0,0.5,0,0.7-0.2c0.9-0.9,2.1-0.7,3.2-0.8c0.6,0,1.2,0.1,1.6-0.2c1.5-1,3.2-0.8,4.9-0.9c0.4,0,0.9,0.1,1.2-0.1   c1.3-1.1,2.9-0.7,4.4-0.8c0.6,0,1.2,0.1,1.7-0.1c2.8-1.3,5.6-1.2,8.5,0.1c3.9,1.7,5.9,4.9,6.4,8.9c0.5,3.7,0,7.6,0.9,11.4   c0.9,3.8,0,7.8,1,11.8c0.8,3.6,0.1,7.4,0.9,11.1c0.9,4,0.2,8.2,1,12.3c0.8,3.8,0.2,7.9,1,11.8c0.8,3.8,0.2,7.7,1,11.6   c0.8,3.6,0.3,7.4,1,11.1c0.8,4.2,0.3,8.5,1.1,12.8c0.4,2.3,0.2,4.8,0.3,7.2c0,0.6,0,1.3,0.1,1.9c0.3,1.6,0.7,3.1,0.8,4.6   c0.2,3,0,6,0.7,9c0.5,2.3,0.2,4.8,0.3,7.2c0,0.8,0,1.6,0.3,2.3c1.4,3.1-0.1,5.7-1.5,8.2c-0.6,1.1-1.8,2.1-2.9,2.8   c-1.1,0.8-2.3,1.4-3.5,1.7c-2,0.5-4.2,0.6-6.2,1.1c-3,0.8-5.9,2.1-9,2.7c-3.5,0.7-6.7,2.1-9.9,3.4c-4.7,2-9.6,3.9-14,6.7   c-2.4,1.6-5,2.8-7.4,4.4c-2.9,1.9-5.6,4-8.4,6.1c-3.3,2.6-6.6,5.1-9.6,7.9c-3.3,3.1-6.5,6.2-9.3,9.8c-2.5,3.2-5.2,6.1-7.4,9.5   c-2,3.1-4.1,6-6,9.2c-1.6,2.7-3.1,5.5-4.4,8.4c-1.6,3.3-3.3,6.6-4.3,10.1c-0.7,2.2-2.1,4.3-2.5,6.6c-0.5,3-2.3,5.7-2.2,8.8   c-1.5,2-1,4.6-1.7,6.8c-0.9,3.1-0.9,6.6-1.3,9.9c-0.3,2.4-0.8,4.7-0.8,7.1c-0.2,6.5-0.3,13.1,0.8,19.5c0.6,3.2,0.8,6.5,1.2,9.7   c0,0.2,0.2,0.4,0.2,0.7c0.6,2.4,1.1,4.7,1.7,7.1c0.4,1.8,0.6,3.6,1.2,5.3c0.8,2.4,2,4.7,2.6,7.2c0.8,3.1,2.3,6,3.5,8.9   c1.9,4.4,4.3,8.5,6.7,12.6c1.3,2.2,2.7,4.4,4.2,6.5c1.1,1.6,2.2,3,3.4,4.5c1.9,2.4,3.5,5.1,5.7,7.3c5.2,5.4,10.2,11.1,16.3,15.5   c2,1.5,3.8,3.2,5.9,4.6c4.6,3.1,9.3,6.3,14.3,8.7c4,1.9,8,3.8,12.1,5.5c2.7,1.2,5.6,2,8.4,3.1c2,0.8,4,1.7,6.2,1.9   c0.4,0,0.7,0.2,1.1,0.4c1.9,0.5,3.7,1.3,5.6,1.5c3.1,0.2,6,1.6,9.1,1.2c0.2,0,0.5,0.1,0.7,0.2c1.1,0.2,2.3,0.6,3.4,0.7   c2.6,0.1,5.1,0,7.7,0.1c1.9,0.1,3.8,0.4,5.7,0.4c4.2-0.1,8.3-0.3,12.4-0.5c0.6,0,1.4,0.1,1.9-0.1c1.7-1,3.6-0.7,5.4-0.9   c0.6-0.1,1.2-0.2,1.9-0.3c0.8-0.2,1.7-0.4,2.5-0.6c2.2-0.4,4.4-0.6,6.5-1.2c2.8-0.8,5.5-1.8,8.2-2.7c4.1-1.4,8.3-2.5,12.2-4.4   c4.1-2,8.2-4,12.2-6.3c5.5-3.3,10.8-7,16-10.8c3-2.2,5.6-4.9,8.4-7.4c2.9-2.6,5.3-5.6,7.9-8.5c2.7-3,5.1-6.1,7.4-9.4   c3.3-4.6,6.3-9.4,9-14.3c1.2-2.2,2.4-4.5,3.4-6.9c1.3-2.9,2.4-6,3.6-9c0.9-2.4,1.8-4.8,2.5-7.3c0.5-1.6,0.9-3.3,1.3-5   c0.7-2.9,1.4-5.9,1.9-8.9c0.4-2.5,0.9-5,0.9-7.5c0-0.2,0.1-0.5,0.2-0.7c0.8-1.3,0.7-2.8,0.7-4.2c0-2.8,0.1-5.6,0-8.4   c-0.1-2.2,0.1-4.3,1-6.3c1-2.1,2.3-3.9,4.4-5.2c3-1.8,6.3-1.7,9.4-2.7c2.2-0.7,4.7-0.7,7-1.3c3.2-0.8,6.4-1.8,9.7-1.9   c0.2,0,0.4-0.2,0.7-0.3c1-0.2,2-0.5,3-0.7c0.5-0.1,1.3,0.1,1.6-0.2c1.1-0.9,2.4-0.8,3.6-0.8c0.5,0,1.1,0.1,1.4-0.2   c1-0.8,2.1-0.7,3.2-0.8c0.5,0,1-0.1,1.4-0.2c2.3-0.6,4.6-1.2,6.9-1.7c2.4-0.5,4.8-0.8,7.2-1.1c0.2,0,0.3-0.1,0.5-0.1   c2.3-0.6,4.7-1.2,7-1.7c2.5-0.5,5-0.8,7.5-1.3c0.2,0,0.3-0.1,0.5-0.1c2.2-0.6,4.4-1.2,6.6-1.6c2.3-0.5,4.7-0.8,7-1.1   c0.2,0,0.4-0.2,0.7-0.2c1.1-0.2,2.1-0.5,3.2-0.7c0.5-0.1,1.1-0.1,1.6-0.2c1.1-0.2,2.1-0.5,3.2-0.7c0.6-0.1,1.2-0.2,1.9-0.4   c0.8-0.2,1.6-0.5,2.5-0.6c0.6-0.1,1.5,0.2,1.9-0.2c2-1.6,4.8-0.1,6.7-1.8c3.1-0.2,6.1-0.8,9.1-1.8c1.6-0.6,3.4-0.6,5.1-1.1   c2.5-0.7,5.1-0.9,7.7-1.3c0.2,0,0.5,0,0.7-0.1c2.6-1.3,5.2-1.1,7.8,0.2c3.7,1.8,6.4,4.3,6.3,8.8c0,0.4-0.1,0.9,0.1,1.2   c1,1.3,0.7,2.7,0.7,4.2C576.9,283.5,576.7,288.4,577.7,293.2z"/>
	<path class="st0" d="M547.5,25.4c1.5,0.7,3.1,1.5,4.6,2.2c3.9,1.8,6.2,5,7.4,8.8c0.7,2.3,2,5,0.5,7.6c-0.2,4.7-2.9,8.1-6.3,10.9   c-6.3,5.2-11.8,11.1-17.7,16.6c-5.5,5.1-10.9,10.2-16.3,15.3c-5.7,5.4-11.4,10.7-17.1,16.1c-5.6,5.3-11.2,10.5-16.9,15.8   c-4.9,4.6-9.8,9.3-14.7,13.8c-7,6.5-14,12.8-21,19.3c-4.2,4-8.2,8.1-12.4,12.1c-6,5.7-12,11.3-18.1,16.9c-5,4.7-9.9,9.4-14.9,14   c-0.9,0.9-1.9,1.6-2.9,2.5c-1.6,1.4-3,2.9-4.3,4.6c-1.9,2.7-4.6,4.8-8.4,4.5c-1-0.1-2.1-0.1-3.1,0c-2.2,0.1-4-0.8-5.5-2.2   s-3.2-2.7-3.7-4.8c-0.2-0.8-0.6-1.6-0.7-2.4c-0.5-3.6,0.5-6.8,2.2-9.9c2.7-5.1,5.2-10.4,8.1-15.4c2.5-4.3,4.6-8.8,6.9-13.2   c2.8-5.6,5.9-11.1,8.8-16.7c2.4-4.6,4.7-9.1,7.1-13.7c2.9-5.5,5.8-10.9,8.6-16.4c1.9-3.6,3.6-7.3,5.5-10.9   c3.4-6.6,6.9-13.2,10.3-19.8c1.6-3,3.1-6.1,4.7-9.1c3.5-6.7,7-13.3,10.4-20c1.5-2.9,3-5.9,4.5-8.9c2.2-4.4,5.1-8.3,9.3-11.1   c1.9-1.3,3.9-2.6,6-3.5c1.7-0.8,3.5-1.1,5.3-1.6c1.6-0.4,3.2-0.9,4.7-1.3C501.4,25.4,524.4,25.4,547.5,25.4z"/>
	<path class="st0" d="M388.7,301.3c0,2.8,0,5.6,0,8.4c0,1.3,0.1,2.7-0.7,3.9c-0.3,0.4-0.2,1.1-0.2,1.6c-0.1,1.5-0.1,2.9-0.8,4.4   c-0.8,1.7-0.8,3.8-1.3,5.7c-0.6,2.3-1.3,4.5-2.2,6.7c-1.4,3.4-3.1,6.8-4.7,10.1c-1.5,3.3-3.5,6.3-5.6,9.2   c-3.6,5.3-7.9,10.1-12.6,14.5c-2.7,2.5-5.7,4.7-8.7,6.9c-4.3,3-8.8,5.8-13.5,8.1c-2.2,1.1-4.6,1.8-6.9,2.7   c-2.5,0.9-4.9,1.9-7.4,2.7c-1.6,0.5-3.2,0.8-4.8,1c-3.4,0.5-6.8,1.7-10.3,1.3c-1-0.1-2.1,0.4-3.2,0.6c-1.1,0.1-2.2,0.3-3.3,0.2   c-2.5-0.1-5,0.3-7.6-0.7c-1.5-0.6-3.3-0.1-5-0.3c-1.2-0.1-2.5-0.5-3.7-0.7c-0.3-0.1-0.6-0.2-0.9-0.2c-2.9-0.1-5.5-1.2-8.3-1.8   c-3.5-0.7-6.8-2-10-3.4c-4.1-1.8-8.3-3.7-12-6.3c-2.3-1.7-4.8-3.2-7.2-4.7c-0.3-0.2-0.5-0.4-0.8-0.6c-4.1-3.9-9-7.1-12.2-11.9   c-1.7-2.5-3.9-4.5-5.7-6.9c-1.9-2.7-3.5-5.6-5.2-8.4c-2.9-4.6-4.6-9.8-6.6-14.8c-0.7-1.7-1-3.6-1.4-5.5c-0.6-2.2-1.1-4.4-1.6-6.6   c-0.1-0.3-0.2-0.6-0.2-0.9c0-4.6-1.6-9.1-1.1-13.8c0.2-1.9-0.3-3.9,0.1-5.7c0.7-3.8,0.5-7.7,1.8-11.5c0.5-1.5,0.7-3,1-4.6   c1.3-6.6,3.9-12.6,6.8-18.6c2-4.1,4.3-7.8,6.9-11.5c4.4-6.2,9.7-11.7,15.5-16.5c5.9-4.9,12.4-8.9,19.4-12c3.8-1.7,7.6-3.1,11.5-4.6   c2-0.7,4.2-0.9,6.2-1.4c2.6-0.5,5.2-1.1,7.8-1.6c1.1-0.2,2.2-0.3,3.3-0.3c5,0,10.1-0.1,15.1,0c1.4,0,2.8,0.5,4.2,0.8   c0.2,0,0.5,0.1,0.7,0.1c2.6,0.4,5.2,0.5,7.7,1.1c3,0.7,5.8,1.8,8.7,2.7c2.4,0.8,4.8,1.4,7,2.5c3.3,1.6,6.5,3.3,9.7,5.2   c4.4,2.6,8.5,5.6,12.3,9.1c2.3,2.1,4.9,4,6.9,6.5c2.5,3,5,5.9,7.2,9c2.9,4.2,5.7,8.5,7.7,13.2c1.4,3.2,2.9,6.3,3.8,9.6   c0.8,3,2.1,5.8,2.3,9.1c0.1,2.5,1.1,4.9,1.6,7.3c0.2,0.8,0.2,1.6,0.2,2.4C388.7,295.2,388.7,298.2,388.7,301.3L388.7,301.3z"/>
	<path class="st1" d="M521.9,163.6c0.8,0,1.3,0,1.8,0c3.7-0.3,7.1,0.7,10.3,2.2c3.7,1.7,7.3,3.7,10,6.9c2.4,2.8,4.6,5.7,6,9.3   c1,2.5,1.9,5,1.9,7.7c0,1.3,0.7,2.6,0.7,3.9c0,1.1-0.4,2.3-0.6,3.5c-0.1,0.4-0.2,0.8-0.2,1.2c-0.1,4.4-2,8.1-4.2,11.7   c-1.2,2-2.8,3.9-4.5,5.5c-2.7,2.7-6,4.6-9.4,6c-3,1.3-6.2,2.1-9.4,3.2c-2.4,0.8-4.8,1.8-7.2,2.6c-2.6,0.8-5.2,1.5-7.9,2.3   c-2.4,0.7-4.8,1.5-7.1,2.2c-1.6,0.5-3.1,1.2-4.6,1.7c-3.8,1.3-7.7,2.6-11.5,3.8c-2.5,0.8-5,1.4-7.4,2.2c-3.6,1.2-7.3,2.4-10.9,3.6   c-1.3,0.4-2.5,0.8-3.8,1.2c-3.6,1.1-7.2,2.1-10.8,3.3c-3.5,1.1-6.9,2.5-10.4,3.7c-2.5,0.8-5.1,1.5-7.7,2.2   c-1.2,0.4-2.5,0.6-3.6,1.2c-2.4,1.3-5.1,1.1-7.5,0.6c-3.6-0.9-6.6-3-8.2-6.7c-1-2.4-1.3-4.8-0.9-7.2c0.5-3,2.3-5.5,4.7-7.4   c2.3-1.8,4.5-3.6,6.9-5.3c3.6-2.7,7.4-5.4,11-8.1c1.9-1.4,3.6-3,5.5-4.5c2.4-1.9,4.9-3.7,7.4-5.5c1.5-1.1,3-2.3,4.4-3.4   c2.2-1.7,4.2-3.7,6.5-5.2c3.6-2.3,6.7-5.4,10.3-7.7c2.2-1.5,4.2-3.4,6.3-5c2.1-1.6,4.3-3.1,6.4-4.7c0.5-0.4,0.9-0.9,1.4-1.2   c2.5-1.9,5-3.8,7.5-5.7c1.7-1.3,3.5-2.6,5.2-4c3.3-2.9,6.7-5.4,10.7-7.3c1.5-0.7,3.3-0.9,4.8-1.7   C516.8,163.2,519.5,163.7,521.9,163.6z"/>
	<path class="st1" d="M354.7,31.6c1.1,0,2.2,0,3.4,0c6,0.3,11.1,2.7,15.6,6.5c1.1,1,2.1,2.1,3.2,3.2c2.8,2.8,4.6,6.2,6.1,9.9   c2,4.8,2,9.6,1.6,14.4c-0.2,2.2-1.4,4.4-2.2,6.6c-0.8,2-1.8,4-2.6,6c-1.1,2.9-2.1,5.8-3.3,8.6c-1.2,2.9-2.5,5.7-3.7,8.6   c-1.1,2.8-2.1,5.7-3.2,8.5c-1.2,3.1-2.6,6.2-3.9,9.3c-1.6,3.9-3.5,7.6-4.8,11.6c-1,2.9-2.2,5.7-3.3,8.5c-1.4,3.9-3.2,7.6-4.8,11.4   c-1.8,4.6-3.5,9.2-5.3,13.8c-1.1,2.7-2.4,5.4-3.6,8.1c-0.8,1.8-1.5,3.6-2.2,5.4c-1.2,2.8-3.5,4.3-6.1,5.5c-1.1,0.5-2.2,0.9-3.4,1   c-4.7,0.4-10.4-2.6-12.2-7.5c-1.1-3-1.9-6.2-0.6-9.4c0.3-0.6,0.2-1.4,0.2-2.1c0.1-5.3,0.1-10.6,0.2-15.8c0-1.3,0.4-2.5,0.6-3.8   c0.1-0.8,0.3-1.6,0.3-2.3c0-4.2,0-8.5,0.1-12.7c0.1-2.3,0.5-4.6,0.8-6.8c0.1-0.7,0.1-1.4,0.1-2.2c0.1-4.9-0.4-9.8,0.3-14.6   c1.1-7.3-0.1-14.7,1-21.9c0.9-6.7,0.3-13.4,0.9-20c0.2-1.7,0.7-3.4,1.2-5c0.5-1.7,1.1-3.4,1.8-5.1c0.5-1.1,1.2-2,1.7-3.1   c2.5-4.6,6.3-7.9,10.8-10.6c2.7-1.6,5.5-2.6,8.4-3.5c2-0.6,4.4-0.1,6.7-0.1C354.7,31.7,354.7,31.6,354.7,31.6z"/>
</g>
</svg>